<svg width="16" height="16" viewBox="0 0 16 16" fill="none" xmlns="http://www.w3.org/2000/svg">
<rect width="16" height="16" rx="3" fill="white"/>
<path d="M4.55253 10.548H7.01653V12H2.67153V4.278H4.55253V10.548ZM13.3587 6.764C13.3587 7.21133 13.2561 7.622 13.0507 7.996C12.8454 8.36267 12.5301 8.65967 12.1047 8.887C11.6794 9.11433 11.1514 9.228 10.5207 9.228H9.35472V12H7.47372V4.278H10.5207C11.1367 4.278 11.6574 4.38433 12.0827 4.597C12.5081 4.80967 12.8271 5.103 13.0397 5.477C13.2524 5.851 13.3587 6.28 13.3587 6.764ZM10.3777 7.732C10.7371 7.732 11.0047 7.64767 11.1807 7.479C11.3567 7.31033 11.4447 7.072 11.4447 6.764C11.4447 6.456 11.3567 6.21767 11.1807 6.049C11.0047 5.88033 10.7371 5.796 10.3777 5.796H9.35472V7.732H10.3777ZM12.468 12.088C12.138 12.088 11.8666 11.9927 11.654 11.802C11.4486 11.604 11.346 11.362 11.346 11.076C11.346 10.7827 11.4486 10.537 11.654 10.339C11.8666 10.141 12.138 10.042 12.468 10.042C12.7906 10.042 13.0546 10.141 13.26 10.339C13.4726 10.537 13.579 10.7827 13.579 11.076C13.579 11.362 13.4726 11.604 13.26 11.802C13.0546 11.9927 12.7906 12.088 12.468 12.088Z" fill="#3369E7"/>
</svg>
