<svg width="2860" height="1772" viewBox="0 0 2860 1772" fill="none" xmlns="http://www.w3.org/2000/svg">
<rect width="2860" height="1772" fill="#EFEFEF"/>
<rect x="470" y="347" width="1920" height="1080" fill="#015396"/>
<circle cx="2061" cy="544" r="122" fill="white"/>
<circle cx="1740" cy="1243" r="78" fill="white"/>
<path d="M469.5 369.5C549.481 382.321 540 438.101 751.5 399.05C963 360 960.292 416.793 1066.5 432C1283 463 1235 339 1397.5 360C1560 381 1644.5 411 1769.5 401C1894.5 391 1827.5 348 2011 369.5C2194.5 391 2154.5 422 2245 391C2335.5 360 2389.5 399.05 2389.5 399.05" stroke="#E6F0FB" stroke-width="3"/>
<path d="M469.5 448.91C549.481 461.731 652.5 532.921 751.5 478.46C850.5 424 912 512.32 1066.5 511.41C1221 510.5 1215.5 470.32 1397.5 439.41C1579.5 408.5 1635.5 459.32 1769.5 480.41C1903.5 501.5 1877 480.41 2011 448.91C2145 417.41 2154.5 501.41 2245 470.41C2335.5 439.41 2389.5 478.46 2389.5 478.46" stroke="#E6F0FB" stroke-width="3"/>
<path d="M469.5 448.91C549.481 461.731 652.5 532.921 751.5 478.46C850.5 424 912 512.32 1066.5 511.41C1221 510.5 1215.5 470.32 1397.5 439.41C1579.5 408.5 1635.5 459.32 1769.5 480.41C1903.5 501.5 1877 480.41 2011 448.91C2145 417.41 2154.5 501.41 2245 470.41C2335.5 439.41 2389.5 478.46 2389.5 478.46" stroke="#015396" stroke-opacity="0.3" stroke-width="3"/>
<path d="M470 527.91C549.981 540.731 540.5 596.51 752 557.46C963.5 518.41 960.792 575.202 1067 590.41C1283.5 621.41 1254 496 1416.5 517C1579 538 1505 477.5 1681.5 509C1858 540.5 1834.5 571.32 2011.5 527.91C2188.5 484.5 2155 580.41 2245.5 549.41C2336 518.41 2390 557.46 2390 557.46" stroke="#E6F0FB" stroke-width="3"/>
<path d="M470 527.91C549.981 540.731 540.5 596.51 752 557.46C963.5 518.41 960.792 575.202 1067 590.41C1283.5 621.41 1254 496 1416.5 517C1579 538 1505 477.5 1681.5 509C1858 540.5 1834.5 571.32 2011.5 527.91C2188.5 484.5 2155 580.41 2245.5 549.41C2336 518.41 2390 557.46 2390 557.46" stroke="#015396" stroke-opacity="0.3" stroke-width="3"/>
<path d="M470 606.91C549.981 619.731 540.5 675.511 752 636.461C963.5 597.41 960.792 654.203 1067 669.41C1283.5 700.41 1233.5 577.32 1398 597.41C1562.5 617.5 1547 543.59 1736 580.5C1925 617.41 1868.5 575.91 2052 597.41C2235.5 618.91 2244.5 586.821 2294 597.41C2343.5 608 2390 636.461 2390 636.461" stroke="#E6F0FB" stroke-width="3"/>
<path d="M470 606.91C549.981 619.731 540.5 675.511 752 636.461C963.5 597.41 960.792 654.203 1067 669.41C1283.5 700.41 1233.5 577.32 1398 597.41C1562.5 617.5 1547 543.59 1736 580.5C1925 617.41 1868.5 575.91 2052 597.41C2235.5 618.91 2244.5 586.821 2294 597.41C2343.5 608 2390 636.461 2390 636.461" stroke="#015396" stroke-opacity="0.3" stroke-width="3"/>
<path d="M469 651.91C548.981 664.731 539.5 720.51 751 681.46C962.5 642.41 959.792 699.202 1066 714.41C1282.5 745.41 1234.5 621.41 1397 642.41C1559.5 663.41 1580 643 1705 633C1830 623 1885 634.36 2012 642.41C2139 650.46 2123.5 673.41 2202.5 651.91C2281.5 630.41 2389 681.46 2389 681.46" stroke="#E6F0FB" stroke-width="3"/>
<path d="M469 651.91C548.981 664.731 539.5 720.51 751 681.46C962.5 642.41 959.792 699.202 1066 714.41C1282.5 745.41 1234.5 621.41 1397 642.41C1559.5 663.41 1580 643 1705 633C1830 623 1885 634.36 2012 642.41C2139 650.46 2123.5 673.41 2202.5 651.91C2281.5 630.41 2389 681.46 2389 681.46" stroke="#015396" stroke-opacity="0.3" stroke-width="3"/>
<path d="M469 752.91C548.981 765.731 539.5 821.511 751 782.46C962.5 743.41 959.792 800.202 1066 815.41C1282.5 846.41 1234.5 722.41 1397 743.41C1559.5 764.41 1644 794.41 1769 784.41C1894 774.41 1827 731.41 2010.5 752.91C2194 774.41 2154 805.41 2244.5 774.41C2335 743.41 2389 782.46 2389 782.46" stroke="#E6F0FB" stroke-width="3"/>
<path d="M470 706.91C549.981 719.731 540.5 775.511 752 736.46C963.5 697.41 960.792 754.202 1067 769.41C1283.5 800.41 1235.5 676.41 1398 697.41C1560.5 718.41 1625 716.91 1750 706.91C1875 696.91 1828.5 675.91 2012 697.41C2195.5 718.91 2155 759.41 2245.5 728.41C2336 697.41 2390 736.46 2390 736.46" stroke="#E6F0FB" stroke-width="3"/>
<path d="M470 806.91C549.981 819.731 540.5 875.511 752 836.46C963.5 797.41 960.792 854.202 1067 869.41C1283.5 900.41 1235.5 776.41 1398 797.41C1560.5 818.41 1645 848.41 1770 838.41C1895 828.41 1828 785.41 2011.5 806.91C2195 828.41 2155 859.41 2245.5 828.41C2336 797.41 2390 836.46 2390 836.46" stroke="#E6F0FB" stroke-width="3"/>
<path d="M470 876.91C549.981 889.731 540.5 945.511 752 906.46C963.5 867.41 960.792 924.202 1067 939.41C1283.5 970.41 1235.5 846.41 1398 867.41C1560.5 888.41 1645 918.41 1770 908.41C1895 898.41 1828 855.41 2011.5 876.91C2195 898.41 2155 929.41 2245.5 898.41C2336 867.41 2390 906.46 2390 906.46" stroke="#E6F0FB" stroke-width="3"/>
<path d="M470 931.91C549.981 944.731 540.5 1000.51 752 961.46C963.5 922.41 960.792 979.202 1067 994.41C1283.5 1025.41 1235.5 901.41 1398 922.41C1560.5 943.41 1635 899.59 1765.5 947C1896 994.41 1828 910.41 2011.5 931.91C2195 953.41 2155 984.41 2245.5 953.41C2336 922.41 2390 961.46 2390 961.46" stroke="#E6F0FB" stroke-width="3"/>
<path d="M469 1007.91C548.981 1020.73 539.5 1076.51 751 1037.46C962.5 998.41 959.792 1055.2 1066 1070.41C1282.5 1101.41 1234.5 977.41 1397 998.41C1559.5 1019.41 1588.5 1043.5 1713.5 1033.5C1838.5 1023.5 1827 986.41 2010.5 1007.91C2194 1029.41 2154 1060.41 2244.5 1029.41C2335 998.41 2389 1037.46 2389 1037.46" stroke="#E6F0FB" stroke-width="3"/>
<path d="M469 1086.91C548.981 1099.73 539.5 1155.51 751 1116.46C962.5 1077.41 959.792 1134.2 1066 1149.41C1282.5 1180.41 1234.5 1056.41 1397 1077.41C1559.5 1098.41 1644 1128.41 1769 1118.41C1894 1108.41 1827 1065.41 2010.5 1086.91C2194 1108.41 2154 1139.41 2244.5 1108.41C2335 1077.41 2389 1116.46 2389 1116.46" stroke="#E6F0FB" stroke-width="3"/>
<path d="M469 1199.91C548.981 1212.73 539.5 1268.51 751 1229.46C962.5 1190.41 959.792 1247.2 1066 1262.41C1282.5 1293.41 1234.5 1169.41 1397 1190.41C1559.5 1211.41 1644 1241.41 1769 1231.41C1894 1221.41 1830.5 1154.91 2019 1190.41C2207.5 1225.91 2184.5 1243 2275 1212C2365.5 1181 2389 1229.46 2389 1229.46" stroke="#E6F0FB" stroke-width="3"/>
<path d="M469 1199.91C548.981 1212.73 539.5 1268.51 751 1229.46C962.5 1190.41 959.792 1247.2 1066 1262.41C1282.5 1293.41 1234.5 1169.41 1397 1190.41C1559.5 1211.41 1644 1241.41 1769 1231.41C1894 1221.41 1830.5 1154.91 2019 1190.41C2207.5 1225.91 2184.5 1243 2275 1212C2365.5 1181 2389 1229.46 2389 1229.46" stroke="#015396" stroke-opacity="0.3" stroke-width="3"/>
<path d="M469 1263.91C548.981 1276.73 539.5 1332.51 751 1293.46C962.5 1254.41 963.792 1291.79 1070 1307C1286.5 1338 1234.5 1233.41 1397 1254.41C1559.5 1275.41 1644 1305.41 1769 1295.41C1894 1285.41 1827 1242.41 2010.5 1263.91C2194 1285.41 2149 1326.41 2239.5 1295.41C2330 1264.41 2389 1293.46 2389 1293.46" stroke="#E6F0FB" stroke-width="3"/>
<path d="M469 1263.91C548.981 1276.73 539.5 1332.51 751 1293.46C962.5 1254.41 963.792 1291.79 1070 1307C1286.5 1338 1234.5 1233.41 1397 1254.41C1559.5 1275.41 1644 1305.41 1769 1295.41C1894 1285.41 1827 1242.41 2010.5 1263.91C2194 1285.41 2149 1326.41 2239.5 1295.41C2330 1264.41 2389 1293.46 2389 1293.46" stroke="#015396" stroke-opacity="0.3" stroke-width="3"/>
<path d="M470 1323.91C549.981 1336.73 633.5 1376.41 744.5 1345.41C855.5 1314.41 844 1345.41 1074 1355.41C1304 1365.41 1235.5 1293.41 1398 1314.41C1560.5 1335.41 1645 1365.41 1770 1355.41C1895 1345.41 1828 1302.41 2011.5 1323.91C2195 1345.41 2155 1376.41 2245.5 1345.41C2336 1314.41 2390 1353.46 2390 1353.46" stroke="#E6F0FB" stroke-width="3"/>
<path d="M470 1378.91C549.981 1391.73 540.5 1447.51 752 1408.46C963.5 1369.41 952.292 1385.2 1058.5 1400.41C1275 1431.41 1235.5 1348.41 1398 1369.41C1560.5 1390.41 1645 1420.41 1770 1410.41C1895 1400.41 1828 1357.41 2011.5 1378.91C2195 1400.41 2155 1431.41 2245.5 1400.41C2336 1369.41 2390 1408.46 2390 1408.46" stroke="#E6F0FB" stroke-width="3"/>
<path d="M469 1136.91C548.981 1149.73 539.5 1205.51 751 1166.46C962.5 1127.41 959.792 1184.2 1066 1199.41C1282.5 1230.41 1234.5 1106.41 1397 1127.41C1559.5 1148.41 1644 1178.41 1769 1168.41C1894 1158.41 1827 1115.41 2010.5 1136.91C2194 1158.41 2154 1189.41 2244.5 1158.41C2335 1127.41 2389 1166.46 2389 1166.46" stroke="#E6F0FB" stroke-width="3"/>
<path d="M469 1136.91C548.981 1149.73 539.5 1205.51 751 1166.46C962.5 1127.41 959.792 1184.2 1066 1199.41C1282.5 1230.41 1234.5 1106.41 1397 1127.41C1559.5 1148.41 1644 1178.41 1769 1168.41C1894 1158.41 1827 1115.41 2010.5 1136.91C2194 1158.41 2154 1189.41 2244.5 1158.41C2335 1127.41 2389 1166.46 2389 1166.46" stroke="#015396" stroke-opacity="0.3" stroke-width="3"/>
<circle cx="1025" cy="843" r="404" fill="#015396"/>
<circle cx="906" cy="526" r="2" fill="white"/>
<circle cx="772" cy="554" r="2" fill="white"/>
<circle cx="842" cy="539" r="2" fill="white"/>
<circle cx="968" cy="516" r="2" fill="white"/>
<circle cx="1027" cy="514" r="2" fill="white"/>
<circle cx="1084" cy="526" r="2" fill="white"/>
<circle cx="1145" cy="543" r="2" fill="white"/>
<circle cx="1201" cy="550" r="2" fill="white"/>
<circle cx="1258" cy="543" r="2" fill="white"/>
<ellipse cx="906" cy="608.028" rx="2" ry="1.79817" fill="white"/>
<ellipse cx="729" cy="638.798" rx="2" ry="1.79817" fill="white"/>
<ellipse cx="820" cy="623.312" rx="2" ry="1.79817" fill="white"/>
<ellipse cx="968" cy="582.798" rx="2" ry="1.79817" fill="white"/>
<ellipse cx="1029" cy="567.798" rx="2" ry="1.79817" fill="white"/>
<ellipse cx="1099" cy="592.798" rx="2" ry="1.79817" fill="white"/>
<ellipse cx="1165" cy="621.514" rx="2" ry="1.79817" fill="white"/>
<ellipse cx="1235" cy="623.312" rx="2" ry="1.79817" fill="white"/>
<ellipse cx="1295" cy="611.624" rx="2" ry="1.79817" fill="white"/>
<ellipse cx="902" cy="473.798" rx="2" ry="1.79817" fill="white"/>
<ellipse cx="979" cy="461.798" rx="2" ry="1.79817" fill="white"/>
<ellipse cx="1063" cy="475.798" rx="2" ry="1.79817" fill="white"/>
<ellipse cx="1135" cy="490.798" rx="2" ry="1.79817" fill="white"/>
<ellipse cx="1196" cy="490.798" rx="2" ry="1.79817" fill="white"/>
<circle cx="859" cy="668" r="2" fill="white"/>
<circle cx="679" cy="691" r="2" fill="white"/>
<circle cx="772" cy="676" r="2" fill="white"/>
<circle cx="945" cy="647" r="2" fill="white"/>
<circle cx="1019" cy="631" r="2" fill="white"/>
<circle cx="1088" cy="659" r="2" fill="white"/>
<circle cx="1175" cy="672" r="2" fill="white"/>
<circle cx="1262" cy="672" r="2" fill="white"/>
<circle cx="1340" cy="651" r="2" fill="white"/>
<ellipse cx="858.75" cy="764.028" rx="2.45652" ry="1.79817" fill="white"/>
<ellipse cx="663.457" cy="789.202" rx="2.45652" ry="1.79817" fill="white"/>
<ellipse cx="753.12" cy="779.312" rx="2.45652" ry="1.79817" fill="white"/>
<ellipse cx="934.902" cy="755.037" rx="2.45652" ry="1.79817" fill="white"/>
<ellipse cx="1007.37" cy="753.239" rx="2.45652" ry="1.79817" fill="white"/>
<ellipse cx="1077.46" cy="754.798" rx="2.45652" ry="1.79817" fill="white"/>
<ellipse cx="1176.87" cy="777.514" rx="2.45652" ry="1.79817" fill="white"/>
<ellipse cx="1262.85" cy="779.312" rx="2.45652" ry="1.79817" fill="white"/>
<ellipse cx="1336.54" cy="767.624" rx="2.45652" ry="1.79817" fill="white"/>
<ellipse cx="863" cy="708.798" rx="2" ry="1.79817" fill="white"/>
<ellipse cx="683" cy="738.798" rx="2" ry="1.79817" fill="white"/>
<ellipse cx="772" cy="724.798" rx="2" ry="1.79817" fill="white"/>
<ellipse cx="951" cy="701.798" rx="2" ry="1.79817" fill="white"/>
<ellipse cx="1023" cy="694.798" rx="2" ry="1.79817" fill="white"/>
<ellipse cx="1082" cy="706.798" rx="2" ry="1.79817" fill="white"/>
<ellipse cx="1148" cy="717.073" rx="2" ry="1.79817" fill="white"/>
<ellipse cx="1218" cy="718.872" rx="2" ry="1.79817" fill="white"/>
<ellipse cx="1278" cy="707.183" rx="2" ry="1.79817" fill="white"/>
<ellipse cx="1344" cy="697.798" rx="2" ry="1.79817" fill="white"/>
<circle cx="1148" cy="1168" r="2" transform="rotate(-180 1148 1168)" fill="white"/>
<circle cx="1282" cy="1140" r="2" transform="rotate(-180 1282 1140)" fill="white"/>
<circle cx="1212" cy="1155" r="2" transform="rotate(-180 1212 1155)" fill="white"/>
<circle cx="1086" cy="1178" r="2" transform="rotate(-180 1086 1178)" fill="white"/>
<circle cx="1027" cy="1180" r="2" transform="rotate(-180 1027 1180)" fill="white"/>
<circle cx="970" cy="1168" r="2" transform="rotate(-180 970 1168)" fill="white"/>
<circle cx="909" cy="1151" r="2" transform="rotate(-180 909 1151)" fill="white"/>
<circle cx="853" cy="1144" r="2" transform="rotate(-180 853 1144)" fill="white"/>
<circle cx="796" cy="1151" r="2" transform="rotate(-180 796 1151)" fill="white"/>
<ellipse cx="1148" cy="1085.97" rx="2" ry="1.79817" transform="rotate(-180 1148 1085.97)" fill="white"/>
<ellipse cx="1307" cy="1060.8" rx="2" ry="1.79817" transform="rotate(-180 1307 1060.8)" fill="white"/>
<ellipse cx="1234" cy="1070.69" rx="2" ry="1.79817" transform="rotate(-180 1234 1070.69)" fill="white"/>
<ellipse cx="1086" cy="1111.2" rx="2" ry="1.79817" transform="rotate(-180 1086 1111.2)" fill="white"/>
<ellipse cx="1025" cy="1126.2" rx="2" ry="1.79817" transform="rotate(-180 1025 1126.2)" fill="white"/>
<ellipse cx="955" cy="1101.2" rx="2" ry="1.79817" transform="rotate(-180 955 1101.2)" fill="white"/>
<ellipse cx="889" cy="1072.49" rx="2" ry="1.79817" transform="rotate(-180 889 1072.49)" fill="white"/>
<ellipse cx="819" cy="1070.69" rx="2" ry="1.79817" transform="rotate(-180 819 1070.69)" fill="white"/>
<ellipse cx="759" cy="1082.38" rx="2" ry="1.79817" transform="rotate(-180 759 1082.38)" fill="white"/>
<circle cx="1181" cy="1026" r="2" transform="rotate(-180 1181 1026)" fill="white"/>
<circle cx="1340" cy="1001" r="2" transform="rotate(-180 1340 1001)" fill="white"/>
<circle cx="1255" cy="1012" r="2" transform="rotate(-180 1255 1012)" fill="white"/>
<circle cx="1103" cy="1039" r="2" transform="rotate(-180 1103 1039)" fill="white"/>
<circle cx="1027" cy="1063" r="2" transform="rotate(-180 1027 1063)" fill="white"/>
<circle cx="966" cy="1035" r="2" transform="rotate(-180 966 1035)" fill="white"/>
<circle cx="879" cy="1022" r="2" transform="rotate(-180 879 1022)" fill="white"/>
<circle cx="792" cy="1022" r="2" transform="rotate(-180 792 1022)" fill="white"/>
<circle cx="714" cy="1043" r="2" transform="rotate(-180 714 1043)" fill="white"/>
<ellipse cx="1195.25" cy="929.972" rx="2.45652" ry="1.79817" transform="rotate(-180 1195.25 929.972)" fill="white"/>
<ellipse cx="1390.54" cy="904.798" rx="2.45652" ry="1.79817" transform="rotate(-180 1390.54 904.798)" fill="white"/>
<ellipse cx="1300.88" cy="914.688" rx="2.45652" ry="1.79817" transform="rotate(-180 1300.88 914.688)" fill="white"/>
<ellipse cx="1119.1" cy="938.963" rx="2.45652" ry="1.79817" transform="rotate(-180 1119.1 938.963)" fill="white"/>
<ellipse cx="1046.63" cy="940.761" rx="2.45652" ry="1.79817" transform="rotate(-180 1046.63 940.761)" fill="white"/>
<ellipse cx="976.62" cy="929.972" rx="2.45652" ry="1.79817" transform="rotate(-180 976.62 929.972)" fill="white"/>
<ellipse cx="877.13" cy="916.486" rx="2.45652" ry="1.79817" transform="rotate(-180 877.13 916.486)" fill="white"/>
<ellipse cx="791.152" cy="914.688" rx="2.45652" ry="1.79817" transform="rotate(-180 791.152 914.688)" fill="white"/>
<ellipse cx="665.457" cy="922.798" rx="2.45652" ry="1.79817" transform="rotate(-180 665.457 922.798)" fill="white"/>
<path d="M715 926.376C715 925.383 716.1 924.578 717.457 924.578C718.813 924.578 719.913 925.383 719.913 926.376C719.913 927.369 718.813 928.174 717.457 928.174C716.1 928.174 715 927.369 715 926.376Z" fill="white"/>
<ellipse cx="1161.25" cy="861.972" rx="2.45652" ry="1.79817" transform="rotate(-180 1161.25 861.972)" fill="white"/>
<ellipse cx="1356.54" cy="836.798" rx="2.45652" ry="1.79817" transform="rotate(-180 1356.54 836.798)" fill="white"/>
<ellipse cx="1266.88" cy="846.688" rx="2.45652" ry="1.79817" transform="rotate(-180 1266.88 846.688)" fill="white"/>
<ellipse cx="1085.1" cy="870.963" rx="2.45652" ry="1.79817" transform="rotate(-180 1085.1 870.963)" fill="white"/>
<ellipse cx="1012.63" cy="872.761" rx="2.45652" ry="1.79817" transform="rotate(-180 1012.63 872.761)" fill="white"/>
<ellipse cx="942.62" cy="861.972" rx="2.45652" ry="1.79817" transform="rotate(-180 942.62 861.972)" fill="white"/>
<ellipse cx="843.13" cy="848.486" rx="2.45652" ry="1.79817" transform="rotate(-180 843.13 848.486)" fill="white"/>
<ellipse cx="757.152" cy="846.688" rx="2.45652" ry="1.79817" transform="rotate(-180 757.152 846.688)" fill="white"/>
<ellipse cx="683.457" cy="858.376" rx="2.45652" ry="1.79817" transform="rotate(-180 683.457 858.376)" fill="white"/>
<ellipse cx="1191" cy="985.202" rx="2" ry="1.79817" transform="rotate(-180 1191 985.202)" fill="white"/>
<ellipse cx="1371" cy="955.202" rx="2" ry="1.79817" transform="rotate(-180 1371 955.202)" fill="white"/>
<ellipse cx="1282" cy="969.202" rx="2" ry="1.79817" transform="rotate(-180 1282 969.202)" fill="white"/>
<ellipse cx="1103" cy="992.202" rx="2" ry="1.79817" transform="rotate(-180 1103 992.202)" fill="white"/>
<ellipse cx="1031" cy="999.202" rx="2" ry="1.79817" transform="rotate(-180 1031 999.202)" fill="white"/>
<ellipse cx="972" cy="987.202" rx="2" ry="1.79817" transform="rotate(-180 972 987.202)" fill="white"/>
<ellipse cx="906" cy="976.927" rx="2" ry="1.79817" transform="rotate(-180 906 976.927)" fill="white"/>
<ellipse cx="836" cy="975.128" rx="2" ry="1.79817" transform="rotate(-180 836 975.128)" fill="white"/>
<ellipse cx="699" cy="976.798" rx="2" ry="1.79817" transform="rotate(-180 699 976.798)" fill="white"/>
<ellipse cx="776" cy="986.817" rx="2" ry="1.79817" transform="rotate(-180 776 986.817)" fill="white"/>
<rect x="840" y="851" width="948" height="109" fill="white"/>
<path d="M845.284 820V750.182H862.159V806.295H891.205V820H845.284ZM910.5 820V750.182H959.182V763.886H927.375V778.205H956.694V791.943H927.375V806.295H959.182V820H910.5ZM929.25 743.534L936.137 728.159H950.898L940.603 743.534H929.25ZM980.31 820V750.182H997.185V806.295H1026.23V820H980.31ZM1045.53 820V750.182H1094.21V763.886H1062.4V778.205H1091.72V791.943H1062.4V806.295H1094.21V820H1045.53ZM1115.34 820V750.182H1132.21V779.705H1133.13L1156.21 750.182H1176.09L1151.34 781.341L1176.53 820H1156.35L1138.96 792.557L1132.21 801.08V820H1115.34ZM1193.3 750.182H1214.2L1231.93 793.409H1232.75L1250.47 750.182H1271.37V820H1254.94V777.114H1254.36L1237.59 819.557H1227.09L1210.31 776.875H1209.73V820H1193.3V750.182ZM1334.7 750.182H1351.54V795.216C1351.54 800.42 1350.3 804.955 1347.82 808.818C1345.34 812.659 1341.89 815.636 1337.46 817.75C1333.02 819.841 1327.88 820.886 1322.01 820.886C1316.08 820.886 1310.9 819.841 1306.47 817.75C1302.04 815.636 1298.59 812.659 1296.14 808.818C1293.68 804.955 1292.46 800.42 1292.46 795.216V750.182H1309.33V793.75C1309.33 796.159 1309.85 798.307 1310.9 800.193C1311.97 802.08 1313.46 803.557 1315.37 804.625C1317.27 805.693 1319.49 806.227 1322.01 806.227C1324.54 806.227 1326.74 805.693 1328.63 804.625C1330.54 803.557 1332.02 802.08 1333.09 800.193C1334.16 798.307 1334.7 796.159 1334.7 793.75V750.182ZM1324.71 744.011L1335.65 730H1349.01L1336.06 744.011H1324.71ZM1306.06 744.011L1315.67 730H1329L1317.51 744.011H1306.06ZM1388.53 750.182L1404.14 801.318H1404.72L1420.33 750.182H1439.22L1415.66 820H1393.2L1369.64 750.182H1388.53ZM1457.3 820V750.182H1505.98V763.886H1474.17V778.205H1503.49V791.943H1474.17V806.295H1505.98V820H1457.3ZM1527.11 820V750.182H1543.98V806.295H1573.03V820H1527.11ZM1592.32 820V750.182H1641V763.886H1609.2V778.205H1638.51V791.943H1609.2V806.295H1641V820H1592.32ZM1611.07 743.534L1617.96 728.159H1632.72L1622.42 743.534H1611.07ZM1699.87 771.114C1699.64 768.614 1698.63 766.67 1696.84 765.284C1695.06 763.875 1692.53 763.17 1689.23 763.17C1687.05 763.17 1685.23 763.455 1683.78 764.023C1682.32 764.591 1681.23 765.375 1680.51 766.375C1679.78 767.352 1679.4 768.477 1679.38 769.75C1679.34 770.795 1679.54 771.716 1680 772.511C1680.47 773.307 1681.15 774.011 1682.04 774.625C1682.95 775.216 1684.04 775.739 1685.31 776.193C1686.59 776.648 1688.02 777.045 1689.61 777.386L1695.61 778.75C1699.06 779.5 1702.11 780.5 1704.75 781.75C1707.4 783 1709.63 784.489 1711.43 786.216C1713.25 787.943 1714.62 789.932 1715.55 792.182C1716.48 794.432 1716.96 796.955 1716.98 799.75C1716.96 804.159 1715.85 807.943 1713.64 811.102C1711.44 814.261 1708.27 816.682 1704.13 818.364C1700.02 820.045 1695.05 820.886 1689.23 820.886C1683.39 820.886 1678.3 820.011 1673.96 818.261C1669.62 816.511 1666.25 813.852 1663.84 810.284C1661.43 806.716 1660.19 802.205 1660.12 796.75H1676.28C1676.42 799 1677.02 800.875 1678.09 802.375C1679.15 803.875 1680.62 805.011 1682.48 805.784C1684.37 806.557 1686.55 806.943 1689.03 806.943C1691.3 806.943 1693.23 806.636 1694.82 806.023C1696.44 805.409 1697.68 804.557 1698.54 803.466C1699.4 802.375 1699.85 801.125 1699.87 799.716C1699.85 798.398 1699.44 797.273 1698.64 796.341C1697.85 795.386 1696.62 794.568 1694.96 793.886C1693.32 793.182 1691.23 792.534 1688.69 791.943L1681.39 790.239C1675.35 788.852 1670.59 786.614 1667.11 783.523C1663.63 780.409 1661.9 776.205 1661.93 770.909C1661.9 766.591 1663.06 762.807 1665.4 759.557C1667.75 756.307 1670.98 753.773 1675.12 751.955C1679.26 750.136 1683.97 749.227 1689.27 749.227C1694.68 749.227 1699.37 750.148 1703.35 751.989C1707.35 753.807 1710.45 756.364 1712.65 759.659C1714.86 762.955 1715.98 766.773 1716.03 771.114H1699.87Z" fill="white"/>
<path d="M859.716 896H856.023L866.705 866.909H870.341L881.023 896H877.33L868.636 871.511H868.409L859.716 896ZM861.08 884.636H875.966V887.761H861.08V884.636ZM892.188 896V893.443L907.87 870.034H892.018V866.909H912.074V869.466L896.393 892.875H912.245V896H892.188ZM926.947 896H923.254L933.936 866.909H937.572L948.254 896H944.561L935.868 871.511H935.64L926.947 896ZM928.311 884.636H943.197V887.761H928.311V884.636ZM959.419 896V893.443L975.101 870.034H959.249V866.909H979.306V869.466L963.624 892.875H979.476V896H959.419ZM1011.84 896V866.909H1029.39V870.034H1015.36V879.864H1028.48V882.989H1015.36V892.875H1029.62V896H1011.84ZM1063.23 876C1062.92 875.044 1062.5 874.187 1061.99 873.429C1061.49 872.662 1060.89 872.009 1060.19 871.469C1059.5 870.929 1058.71 870.517 1057.83 870.233C1056.95 869.949 1055.98 869.807 1054.93 869.807C1053.21 869.807 1051.64 870.252 1050.23 871.142C1048.82 872.032 1047.7 873.344 1046.86 875.077C1046.03 876.81 1045.61 878.936 1045.61 881.455C1045.61 883.973 1046.04 886.099 1046.88 887.832C1047.72 889.565 1048.86 890.877 1050.3 891.767C1051.74 892.657 1053.36 893.102 1055.16 893.102C1056.83 893.102 1058.29 892.747 1059.56 892.037C1060.84 891.317 1061.84 890.304 1062.55 888.997C1063.27 887.681 1063.63 886.133 1063.63 884.352L1064.71 884.58H1055.96V881.455H1067.03V884.58C1067.03 886.975 1066.52 889.059 1065.5 890.83C1064.49 892.6 1063.09 893.973 1061.3 894.949C1059.52 895.915 1057.47 896.398 1055.16 896.398C1052.58 896.398 1050.32 895.792 1048.37 894.58C1046.43 893.367 1044.91 891.644 1043.82 889.409C1042.74 887.174 1042.21 884.523 1042.21 881.455C1042.21 879.153 1042.51 877.084 1043.13 875.247C1043.75 873.401 1044.63 871.829 1045.77 870.531C1046.91 869.234 1048.25 868.24 1049.8 867.548C1051.36 866.857 1053.07 866.511 1054.93 866.511C1056.47 866.511 1057.9 866.743 1059.22 867.207C1060.56 867.662 1061.75 868.311 1062.79 869.153C1063.84 869.987 1064.71 870.986 1065.42 872.151C1066.12 873.306 1066.6 874.589 1066.86 876H1063.23ZM1077.27 866.909H1081.3L1089.37 880.489H1089.71L1097.78 866.909H1101.82L1091.3 884.011V896H1087.78V884.011L1077.27 866.909ZM1133.06 866.909H1136.58V886.17C1136.58 888.159 1136.12 889.935 1135.18 891.497C1134.25 893.05 1132.94 894.277 1131.24 895.176C1129.55 896.066 1127.56 896.511 1125.28 896.511C1123 896.511 1121.01 896.066 1119.31 895.176C1117.62 894.277 1116.3 893.05 1115.36 891.497C1114.44 889.935 1113.97 888.159 1113.97 886.17V866.909H1117.49V885.886C1117.49 887.307 1117.81 888.571 1118.43 889.679C1119.06 890.777 1119.95 891.644 1121.1 892.278C1122.27 892.903 1123.66 893.216 1125.28 893.216C1126.9 893.216 1128.29 892.903 1129.45 892.278C1130.62 891.644 1131.51 890.777 1132.12 889.679C1132.75 888.571 1133.06 887.307 1133.06 885.886V866.909ZM1121.19 863.273C1120.59 863.273 1120.06 863.045 1119.6 862.591C1119.14 862.127 1118.91 861.597 1118.91 861C1118.91 860.347 1119.14 859.807 1119.6 859.381C1120.06 858.945 1120.59 858.727 1121.19 858.727C1121.84 858.727 1122.38 858.945 1122.81 859.381C1123.24 859.807 1123.46 860.347 1123.46 861C1123.46 861.597 1123.24 862.127 1122.81 862.591C1122.38 863.045 1121.84 863.273 1121.19 863.273ZM1129.37 863.273C1128.77 863.273 1128.24 863.045 1127.78 862.591C1127.32 862.127 1127.1 861.597 1127.1 861C1127.1 860.347 1127.32 859.807 1127.78 859.381C1128.24 858.945 1128.77 858.727 1129.37 858.727C1130.02 858.727 1130.56 858.945 1130.99 859.381C1131.42 859.807 1131.64 860.347 1131.64 861C1131.64 861.597 1131.42 862.127 1130.99 862.591C1130.56 863.045 1130.02 863.273 1129.37 863.273ZM1149.63 870.034V866.909H1171.45V870.034H1162.3V896H1158.78V870.034H1149.63ZM1182.89 870.034V866.909H1204.71V870.034H1195.56V896H1192.04V870.034H1182.89ZM1236.42 876C1236.11 875.044 1235.7 874.187 1235.19 873.429C1234.69 872.662 1234.08 872.009 1233.38 871.469C1232.69 870.929 1231.91 870.517 1231.03 870.233C1230.14 869.949 1229.18 869.807 1228.13 869.807C1226.4 869.807 1224.84 870.252 1223.43 871.142C1222.02 872.032 1220.89 873.344 1220.06 875.077C1219.23 876.81 1218.81 878.936 1218.81 881.455C1218.81 883.973 1219.23 886.099 1220.07 887.832C1220.92 889.565 1222.06 890.877 1223.5 891.767C1224.94 892.657 1226.56 893.102 1228.35 893.102C1230.02 893.102 1231.49 892.747 1232.76 892.037C1234.04 891.317 1235.03 890.304 1235.74 888.997C1236.46 887.681 1236.82 886.133 1236.82 884.352L1237.9 884.58H1229.15V881.455H1240.23V884.58C1240.23 886.975 1239.72 889.059 1238.7 890.83C1237.68 892.6 1236.28 893.973 1234.49 894.949C1232.71 895.915 1230.67 896.398 1228.35 896.398C1225.78 896.398 1223.52 895.792 1221.57 894.58C1219.62 893.367 1218.11 891.644 1217.02 889.409C1215.94 887.174 1215.4 884.523 1215.4 881.455C1215.4 879.153 1215.71 877.084 1216.32 875.247C1216.95 873.401 1217.83 871.829 1218.97 870.531C1220.1 869.234 1221.45 868.24 1223 867.548C1224.55 866.857 1226.26 866.511 1228.13 866.511C1229.66 866.511 1231.09 866.743 1232.42 867.207C1233.75 867.662 1234.94 868.311 1235.98 869.153C1237.03 869.987 1237.91 870.986 1238.61 872.151C1239.31 873.306 1239.79 874.589 1240.06 876H1236.42ZM1278.41 881.455C1278.41 884.523 1277.85 887.174 1276.75 889.409C1275.64 891.644 1274.12 893.367 1272.19 894.58C1270.26 895.792 1268.05 896.398 1265.57 896.398C1263.09 896.398 1260.88 895.792 1258.95 894.58C1257.02 893.367 1255.5 891.644 1254.39 889.409C1253.28 887.174 1252.73 884.523 1252.73 881.455C1252.73 878.386 1253.28 875.735 1254.39 873.5C1255.5 871.265 1257.02 869.542 1258.95 868.33C1260.88 867.117 1263.09 866.511 1265.57 866.511C1268.05 866.511 1270.26 867.117 1272.19 868.33C1274.12 869.542 1275.64 871.265 1276.75 873.5C1277.85 875.735 1278.41 878.386 1278.41 881.455ZM1275 881.455C1275 878.936 1274.58 876.81 1273.74 875.077C1272.9 873.344 1271.77 872.032 1270.34 871.142C1268.92 870.252 1267.33 869.807 1265.57 869.807C1263.81 869.807 1262.21 870.252 1260.78 871.142C1259.36 872.032 1258.23 873.344 1257.39 875.077C1256.55 876.81 1256.14 878.936 1256.14 881.455C1256.14 883.973 1256.55 886.099 1257.39 887.832C1258.23 889.565 1259.36 890.877 1260.78 891.767C1262.21 892.657 1263.81 893.102 1265.57 893.102C1267.33 893.102 1268.92 892.657 1270.34 891.767C1271.77 890.877 1272.9 889.565 1273.74 887.832C1274.58 886.099 1275 883.973 1275 881.455ZM1315 866.909V896H1311.59L1295.74 873.159H1295.45V896H1291.93V866.909H1295.34L1311.25 889.807H1311.53V866.909H1315ZM1338.63 896H1329.65V866.909H1339.02C1341.85 866.909 1344.26 867.491 1346.27 868.656C1348.28 869.812 1349.82 871.473 1350.89 873.642C1351.96 875.801 1352.49 878.386 1352.49 881.398C1352.49 884.428 1351.95 887.037 1350.87 889.224C1349.79 891.402 1348.22 893.079 1346.15 894.253C1344.09 895.418 1341.58 896 1338.63 896ZM1333.17 892.875H1338.4C1340.8 892.875 1342.8 892.411 1344.38 891.483C1345.96 890.555 1347.14 889.234 1347.92 887.52C1348.69 885.806 1349.08 883.765 1349.08 881.398C1349.08 879.049 1348.7 877.027 1347.93 875.332C1347.16 873.628 1346.02 872.321 1344.49 871.412C1342.97 870.493 1341.07 870.034 1338.8 870.034H1333.17V892.875ZM1390.54 881.455C1390.54 884.523 1389.99 887.174 1388.88 889.409C1387.77 891.644 1386.25 893.367 1384.32 894.58C1382.39 895.792 1380.18 896.398 1377.7 896.398C1375.22 896.398 1373.02 895.792 1371.08 894.58C1369.15 893.367 1367.63 891.644 1366.52 889.409C1365.42 887.174 1364.86 884.523 1364.86 881.455C1364.86 878.386 1365.42 875.735 1366.52 873.5C1367.63 871.265 1369.15 869.542 1371.08 868.33C1373.02 867.117 1375.22 866.511 1377.7 866.511C1380.18 866.511 1382.39 867.117 1384.32 868.33C1386.25 869.542 1387.77 871.265 1388.88 873.5C1389.99 875.735 1390.54 878.386 1390.54 881.455ZM1387.14 881.455C1387.14 878.936 1386.71 876.81 1385.87 875.077C1385.04 873.344 1383.91 872.032 1382.48 871.142C1381.06 870.252 1379.47 869.807 1377.7 869.807C1375.94 869.807 1374.35 870.252 1372.92 871.142C1371.5 872.032 1370.36 873.344 1369.52 875.077C1368.69 876.81 1368.27 878.936 1368.27 881.455C1368.27 883.973 1368.69 886.099 1369.52 887.832C1370.36 889.565 1371.5 890.877 1372.92 891.767C1374.35 892.657 1375.94 893.102 1377.7 893.102C1379.47 893.102 1381.06 892.657 1382.48 891.767C1383.91 890.877 1385.04 889.565 1385.87 887.832C1386.71 886.099 1387.14 883.973 1387.14 881.455ZM1404.07 896V866.909H1407.59V892.875H1421.11V896H1404.07ZM1434.17 896V866.909H1437.69V881.341H1438.03L1451.1 866.909H1455.7L1443.49 880.034L1455.7 896H1451.44L1441.33 882.477L1437.69 886.568V896H1434.17ZM1491.04 881.455C1491.04 884.523 1490.49 887.174 1489.38 889.409C1488.27 891.644 1486.75 893.367 1484.82 894.58C1482.89 895.792 1480.68 896.398 1478.2 896.398C1475.72 896.398 1473.51 895.792 1471.58 894.58C1469.65 893.367 1468.13 891.644 1467.02 889.409C1465.91 887.174 1465.36 884.523 1465.36 881.455C1465.36 878.386 1465.91 875.735 1467.02 873.5C1468.13 871.265 1469.65 869.542 1471.58 868.33C1473.51 867.117 1475.72 866.511 1478.2 866.511C1480.68 866.511 1482.89 867.117 1484.82 868.33C1486.75 869.542 1488.27 871.265 1489.38 873.5C1490.49 875.735 1491.04 878.386 1491.04 881.455ZM1487.63 881.455C1487.63 878.936 1487.21 876.81 1486.37 875.077C1485.53 873.344 1484.4 872.032 1482.97 871.142C1481.55 870.252 1479.96 869.807 1478.2 869.807C1476.44 869.807 1474.84 870.252 1473.41 871.142C1471.99 872.032 1470.86 873.344 1470.02 875.077C1469.18 876.81 1468.77 878.936 1468.77 881.455C1468.77 883.973 1469.18 886.099 1470.02 887.832C1470.86 889.565 1471.99 890.877 1473.41 891.767C1474.84 892.657 1476.44 893.102 1478.2 893.102C1479.96 893.102 1481.55 892.657 1482.97 891.767C1484.4 890.877 1485.53 889.565 1486.37 887.832C1487.21 886.099 1487.63 883.973 1487.63 881.455ZM1513.54 896H1504.56V866.909H1513.94C1516.76 866.909 1519.18 867.491 1521.18 868.656C1523.19 869.812 1524.73 871.473 1525.8 873.642C1526.87 875.801 1527.4 878.386 1527.4 881.398C1527.4 884.428 1526.86 887.037 1525.78 889.224C1524.71 891.402 1523.13 893.079 1521.07 894.253C1519 895.418 1516.5 896 1513.54 896ZM1508.09 892.875H1513.31C1515.72 892.875 1517.71 892.411 1519.29 891.483C1520.87 890.555 1522.05 889.234 1522.83 887.52C1523.61 885.806 1524 883.765 1524 881.398C1524 879.049 1523.61 877.027 1522.84 875.332C1522.08 873.628 1520.93 872.321 1519.41 871.412C1517.88 870.493 1515.98 870.034 1513.71 870.034H1508.09V892.875ZM1540.74 896H1537.05L1547.73 866.909H1551.36L1562.05 896H1558.35L1549.66 871.511H1549.43L1540.74 896ZM1542.1 884.636H1556.99V887.761H1542.1V884.636ZM1548.01 863.955L1551.48 857.364H1555.4L1550.97 863.955H1548.01ZM1590.09 874.182C1589.92 872.742 1589.22 871.625 1588.01 870.83C1586.8 870.034 1585.31 869.636 1583.55 869.636C1582.26 869.636 1581.14 869.845 1580.17 870.261C1579.22 870.678 1578.47 871.251 1577.93 871.98C1577.4 872.709 1577.13 873.538 1577.13 874.466C1577.13 875.242 1577.32 875.91 1577.69 876.469C1578.06 877.018 1578.55 877.477 1579.13 877.847C1579.72 878.206 1580.34 878.505 1580.98 878.741C1581.63 878.969 1582.22 879.153 1582.76 879.295L1585.71 880.091C1586.47 880.29 1587.31 880.564 1588.24 880.915C1589.18 881.265 1590.07 881.743 1590.92 882.349C1591.79 882.946 1592.5 883.713 1593.06 884.651C1593.61 885.588 1593.89 886.739 1593.89 888.102C1593.89 889.674 1593.48 891.095 1592.66 892.364C1591.84 893.633 1590.65 894.641 1589.08 895.389C1587.52 896.137 1585.62 896.511 1583.38 896.511C1581.3 896.511 1579.49 896.175 1577.97 895.503C1576.45 894.83 1575.26 893.893 1574.39 892.69C1573.53 891.488 1573.04 890.091 1572.93 888.5H1576.56C1576.66 889.598 1577.03 890.508 1577.67 891.227C1578.33 891.937 1579.15 892.468 1580.14 892.818C1581.15 893.159 1582.23 893.33 1583.38 893.33C1584.73 893.33 1585.93 893.112 1587 892.676C1588.07 892.231 1588.92 891.616 1589.55 890.83C1590.17 890.034 1590.48 889.106 1590.48 888.045C1590.48 887.08 1590.21 886.294 1589.67 885.688C1589.13 885.081 1588.42 884.589 1587.54 884.21C1586.66 883.831 1585.71 883.5 1584.69 883.216L1581.11 882.193C1578.84 881.54 1577.04 880.607 1575.71 879.395C1574.39 878.183 1573.72 876.597 1573.72 874.636C1573.72 873.008 1574.16 871.587 1575.04 870.375C1575.93 869.153 1577.13 868.206 1578.62 867.534C1580.13 866.852 1581.81 866.511 1583.67 866.511C1585.54 866.511 1587.21 866.848 1588.67 867.52C1590.12 868.183 1591.28 869.092 1592.13 870.247C1592.99 871.402 1593.45 872.714 1593.5 874.182H1590.09ZM1626.14 896V866.909H1629.66V892.875H1643.18V896H1626.14ZM1656.24 896V866.909H1673.79V870.034H1659.76V879.864H1672.88V882.989H1659.76V892.875H1674.02V896H1656.24ZM1687.74 896V866.909H1691.26V892.875H1704.79V896H1687.74ZM1717.84 896V866.909H1721.36V881.341H1721.71L1734.77 866.909H1739.38L1727.16 880.034L1739.38 896H1735.11L1725 882.477L1721.36 886.568V896H1717.84ZM1755.06 866.909V896H1751.54V866.909H1755.06ZM867.5 941H858.523V911.909H867.898C870.72 911.909 873.134 912.491 875.142 913.656C877.15 914.812 878.688 916.473 879.759 918.642C880.829 920.801 881.364 923.386 881.364 926.398C881.364 929.428 880.824 932.037 879.744 934.224C878.665 936.402 877.093 938.079 875.028 939.253C872.964 940.418 870.455 941 867.5 941ZM862.045 937.875H867.273C869.678 937.875 871.671 937.411 873.253 936.483C874.834 935.555 876.013 934.234 876.79 932.52C877.566 930.806 877.955 928.765 877.955 926.398C877.955 924.049 877.571 922.027 876.804 920.332C876.037 918.628 874.891 917.321 873.366 916.412C871.842 915.493 869.943 915.034 867.67 915.034H862.045V937.875ZM919.418 926.455C919.418 929.523 918.864 932.174 917.756 934.409C916.648 936.644 915.128 938.367 913.197 939.58C911.265 940.792 909.058 941.398 906.577 941.398C904.096 941.398 901.89 940.792 899.958 939.58C898.026 938.367 896.506 936.644 895.398 934.409C894.29 932.174 893.736 929.523 893.736 926.455C893.736 923.386 894.29 920.735 895.398 918.5C896.506 916.265 898.026 914.542 899.958 913.33C901.89 912.117 904.096 911.511 906.577 911.511C909.058 911.511 911.265 912.117 913.197 913.33C915.128 914.542 916.648 916.265 917.756 918.5C918.864 920.735 919.418 923.386 919.418 926.455ZM916.009 926.455C916.009 923.936 915.588 921.81 914.745 920.077C913.912 918.344 912.78 917.032 911.35 916.142C909.93 915.252 908.339 914.807 906.577 914.807C904.816 914.807 903.22 915.252 901.79 916.142C900.37 917.032 899.238 918.344 898.395 920.077C897.562 921.81 897.145 923.936 897.145 926.455C897.145 928.973 897.562 931.099 898.395 932.832C899.238 934.565 900.37 935.877 901.79 936.767C903.22 937.657 904.816 938.102 906.577 938.102C908.339 938.102 909.93 937.657 911.35 936.767C912.78 935.877 913.912 934.565 914.745 932.832C915.588 931.099 916.009 928.973 916.009 926.455ZM932.941 941V911.909H936.464V937.875H949.987V941H932.941ZM981.795 921C981.483 920.044 981.071 919.187 980.559 918.429C980.057 917.662 979.456 917.009 978.755 916.469C978.064 915.929 977.278 915.517 976.397 915.233C975.517 914.949 974.551 914.807 973.5 914.807C971.776 914.807 970.209 915.252 968.798 916.142C967.387 917.032 966.265 918.344 965.431 920.077C964.598 921.81 964.181 923.936 964.181 926.455C964.181 928.973 964.603 931.099 965.446 932.832C966.288 934.565 967.43 935.877 968.869 936.767C970.308 937.657 971.928 938.102 973.727 938.102C975.394 938.102 976.861 937.747 978.13 937.037C979.409 936.317 980.403 935.304 981.113 933.997C981.833 932.681 982.193 931.133 982.193 929.352L983.272 929.58H974.522V926.455H985.602V929.58C985.602 931.975 985.09 934.059 984.068 935.83C983.055 937.6 981.653 938.973 979.863 939.949C978.083 940.915 976.037 941.398 973.727 941.398C971.151 941.398 968.888 940.792 966.937 939.58C964.996 938.367 963.481 936.644 962.392 934.409C961.312 932.174 960.772 929.523 960.772 926.455C960.772 924.153 961.08 922.084 961.696 920.247C962.321 918.401 963.201 916.829 964.338 915.531C965.474 914.234 966.819 913.24 968.372 912.548C969.925 911.857 971.634 911.511 973.5 911.511C975.034 911.511 976.464 911.743 977.789 912.207C979.125 912.662 980.313 913.311 981.355 914.153C982.406 914.987 983.282 915.986 983.983 917.151C984.683 918.306 985.166 919.589 985.431 921H981.795ZM999.53 941H995.837L1006.52 911.909H1010.15L1020.84 941H1017.14L1008.45 916.511H1008.22L999.53 941ZM1000.89 929.636H1015.78V932.761H1000.89V929.636ZM1036.49 911.909V941H1032.97V911.909H1036.49ZM1074.22 911.909V941H1070.81L1054.96 918.159H1054.68V941H1051.15V911.909H1054.56L1070.47 934.807H1070.76V911.909H1074.22ZM1088.87 941V911.909H1092.39V926.341H1092.73L1105.8 911.909H1110.41L1098.19 925.034L1110.41 941H1106.14L1096.03 927.477L1092.39 931.568V941H1088.87ZM1122.56 941V911.909H1132.39C1134.67 911.909 1136.53 912.297 1137.99 913.074C1139.45 913.841 1140.53 914.897 1141.23 916.241C1141.93 917.586 1142.28 919.116 1142.28 920.83C1142.28 922.544 1141.93 924.063 1141.23 925.389C1140.53 926.715 1139.45 927.757 1138.01 928.514C1136.56 929.262 1134.71 929.636 1132.45 929.636H1124.5V926.455H1132.34C1133.89 926.455 1135.14 926.227 1136.09 925.773C1137.04 925.318 1137.74 924.674 1138.16 923.841C1138.6 922.998 1138.81 921.994 1138.81 920.83C1138.81 919.665 1138.6 918.647 1138.16 917.776C1137.73 916.904 1137.03 916.232 1136.07 915.759C1135.12 915.276 1133.85 915.034 1132.28 915.034H1126.09V941H1122.56ZM1136.26 927.932L1143.42 941H1139.33L1132.28 927.932H1136.26ZM1180.3 926.455C1180.3 929.523 1179.74 932.174 1178.63 934.409C1177.53 936.644 1176.01 938.367 1174.07 939.58C1172.14 940.792 1169.94 941.398 1167.46 941.398C1164.97 941.398 1162.77 940.792 1160.84 939.58C1158.9 938.367 1157.38 936.644 1156.28 934.409C1155.17 932.174 1154.61 929.523 1154.61 926.455C1154.61 923.386 1155.17 920.735 1156.28 918.5C1157.38 916.265 1158.9 914.542 1160.84 913.33C1162.77 912.117 1164.97 911.511 1167.46 911.511C1169.94 911.511 1172.14 912.117 1174.07 913.33C1176.01 914.542 1177.53 916.265 1178.63 918.5C1179.74 920.735 1180.3 923.386 1180.3 926.455ZM1176.89 926.455C1176.89 923.936 1176.47 921.81 1175.62 920.077C1174.79 918.344 1173.66 917.032 1172.23 916.142C1170.81 915.252 1169.22 914.807 1167.46 914.807C1165.69 914.807 1164.1 915.252 1162.67 916.142C1161.25 917.032 1160.12 918.344 1159.27 920.077C1158.44 921.81 1158.02 923.936 1158.02 926.455C1158.02 928.973 1158.44 931.099 1159.27 932.832C1160.12 934.565 1161.25 935.877 1162.67 936.767C1164.1 937.657 1165.69 938.102 1167.46 938.102C1169.22 938.102 1170.81 937.657 1172.23 936.767C1173.66 935.877 1174.79 934.565 1175.62 932.832C1176.47 931.099 1176.89 928.973 1176.89 926.455ZM1165.92 908.955L1169.39 902.364H1173.31L1168.88 908.955H1165.92ZM1193.82 941V911.909H1197.34V937.875H1210.87V941H1193.82Z" fill="#0A0A0A"/>
</svg>
