<svg width="383" height="383" viewBox="0 0 383 383" fill="none" xmlns="http://www.w3.org/2000/svg">
<rect width="383" height="383" fill="#F8F9FA"/>
<rect x="96" y="88" width="191" height="186" rx="33" fill="#121212"/>
<path d="M262 251H215.659L122 111H164.709L262 251Z" fill="url(#paint0_linear_357_45)"/>
<path d="M122 251H168.341L262 111H219.291L122 251Z" fill="url(#paint1_linear_357_45)"/>
<g filter="url(#filter0_d_357_45)">
<path d="M119.75 190.711V183.211C121.109 184.352 122.586 185.211 124.18 185.789C125.773 186.352 127.383 186.633 129.008 186.633C129.961 186.633 130.789 186.547 131.492 186.375C132.211 186.203 132.805 185.969 133.273 185.672C133.758 185.359 134.117 185 134.352 184.594C134.586 184.172 134.703 183.719 134.703 183.234C134.703 182.578 134.516 181.992 134.141 181.477C133.766 180.961 133.25 180.484 132.594 180.047C131.953 179.609 131.188 179.188 130.297 178.781C129.406 178.375 128.445 177.961 127.414 177.539C124.789 176.445 122.828 175.109 121.531 173.531C120.25 171.953 119.609 170.047 119.609 167.812C119.609 166.062 119.961 164.562 120.664 163.312C121.367 162.047 122.32 161.008 123.523 160.195C124.742 159.383 126.148 158.789 127.742 158.414C129.336 158.023 131.023 157.828 132.805 157.828C134.555 157.828 136.102 157.938 137.445 158.156C138.805 158.359 140.055 158.68 141.195 159.117V166.125C140.633 165.734 140.016 165.391 139.344 165.094C138.688 164.797 138.008 164.555 137.305 164.367C136.602 164.164 135.898 164.016 135.195 163.922C134.508 163.828 133.852 163.781 133.227 163.781C132.367 163.781 131.586 163.867 130.883 164.039C130.18 164.195 129.586 164.422 129.102 164.719C128.617 165.016 128.242 165.375 127.977 165.797C127.711 166.203 127.578 166.664 127.578 167.18C127.578 167.742 127.727 168.25 128.023 168.703C128.32 169.141 128.742 169.562 129.289 169.969C129.836 170.359 130.5 170.75 131.281 171.141C132.062 171.516 132.945 171.906 133.93 172.312C135.273 172.875 136.477 173.477 137.539 174.117C138.617 174.742 139.539 175.453 140.305 176.25C141.07 177.047 141.656 177.961 142.062 178.992C142.469 180.008 142.672 181.195 142.672 182.555C142.672 184.43 142.312 186.008 141.594 187.289C140.891 188.555 139.93 189.586 138.711 190.383C137.492 191.164 136.07 191.727 134.445 192.07C132.836 192.414 131.133 192.586 129.336 192.586C127.492 192.586 125.734 192.43 124.062 192.117C122.406 191.805 120.969 191.336 119.75 190.711ZM158.366 191.719C157.272 192.297 155.623 192.586 153.42 192.586C148.202 192.586 145.592 189.875 145.592 184.453V173.461H141.702V168H145.592V162.82L152.975 160.711V168H158.366V173.461H152.975V183.164C152.975 185.664 153.967 186.914 155.952 186.914C156.733 186.914 157.538 186.688 158.366 186.234V191.719ZM175.817 174.68C174.927 174.195 173.888 173.953 172.7 173.953C171.091 173.953 169.833 174.547 168.927 175.734C168.02 176.906 167.567 178.508 167.567 180.539V192H160.161V168H167.567V172.453H167.661C168.833 169.203 170.942 167.578 173.989 167.578C174.77 167.578 175.38 167.672 175.817 167.859V174.68ZM198.261 182.109H182.605C182.855 185.594 185.05 187.336 189.191 187.336C191.831 187.336 194.152 186.711 196.152 185.461V190.805C193.933 191.992 191.05 192.586 187.503 192.586C183.628 192.586 180.62 191.516 178.48 189.375C176.339 187.219 175.269 184.219 175.269 180.375C175.269 176.391 176.425 173.234 178.737 170.906C181.05 168.578 183.894 167.414 187.269 167.414C190.769 167.414 193.472 168.453 195.378 170.531C197.3 172.609 198.261 175.43 198.261 178.992V182.109ZM191.394 177.562C191.394 174.125 190.003 172.406 187.222 172.406C186.034 172.406 185.003 172.898 184.128 173.883C183.269 174.867 182.745 176.094 182.558 177.562H191.394ZM220.236 192H213.228V188.555H213.134C211.525 191.242 209.142 192.586 205.986 192.586C203.658 192.586 201.822 191.93 200.478 190.617C199.15 189.289 198.486 187.523 198.486 185.32C198.486 180.664 201.244 177.977 206.759 177.258L213.275 176.391C213.275 173.766 211.853 172.453 209.009 172.453C206.15 172.453 203.431 173.305 200.853 175.008V169.43C201.884 168.898 203.291 168.43 205.072 168.023C206.869 167.617 208.502 167.414 209.97 167.414C216.814 167.414 220.236 170.828 220.236 177.656V192ZM213.275 182.25V180.633L208.916 181.195C206.509 181.508 205.306 182.594 205.306 184.453C205.306 185.297 205.595 185.992 206.173 186.539C206.767 187.07 207.564 187.336 208.564 187.336C209.955 187.336 211.088 186.859 211.963 185.906C212.838 184.938 213.275 183.719 213.275 182.25ZM261.805 192H254.422V178.312C254.422 174.828 253.141 173.086 250.578 173.086C249.359 173.086 248.367 173.609 247.602 174.656C246.836 175.703 246.453 177.008 246.453 178.57V192H239.047V178.172C239.047 174.781 237.789 173.086 235.273 173.086C234.008 173.086 232.992 173.586 232.227 174.586C231.477 175.586 231.102 176.945 231.102 178.664V192H223.695V168H231.102V171.75H231.195C231.961 170.469 233.031 169.43 234.406 168.633C235.797 167.82 237.312 167.414 238.953 167.414C242.344 167.414 244.664 168.906 245.914 171.891C247.742 168.906 250.43 167.414 253.977 167.414C259.195 167.414 261.805 170.633 261.805 177.07V192Z" fill="white"/>
</g>
<defs>
<filter id="filter0_d_357_45" x="106.609" y="148.828" width="168.195" height="60.7578" filterUnits="userSpaceOnUse" color-interpolation-filters="sRGB">
<feFlood flood-opacity="0" result="BackgroundImageFix"/>
<feColorMatrix in="SourceAlpha" type="matrix" values="0 0 0 0 0 0 0 0 0 0 0 0 0 0 0 0 0 0 127 0" result="hardAlpha"/>
<feOffset dy="4"/>
<feGaussianBlur stdDeviation="6.5"/>
<feComposite in2="hardAlpha" operator="out"/>
<feColorMatrix type="matrix" values="0 0 0 0 0 0 0 0 0 0 0 0 0 0 0 0 0 0 0.18 0"/>
<feBlend mode="normal" in2="BackgroundImageFix" result="effect1_dropShadow_357_45"/>
<feBlend mode="normal" in="SourceGraphic" in2="effect1_dropShadow_357_45" result="shape"/>
</filter>
<linearGradient id="paint0_linear_357_45" x1="143.238" y1="183.414" x2="299.638" y2="183.414" gradientUnits="userSpaceOnUse">
<stop stop-color="#A29BFE"/>
<stop offset="1" stop-color="white"/>
</linearGradient>
<linearGradient id="paint1_linear_357_45" x1="143.238" y1="183.414" x2="299.638" y2="183.414" gradientUnits="userSpaceOnUse">
<stop stop-color="#A29BFE"/>
<stop offset="1" stop-color="white"/>
</linearGradient>
</defs>
</svg>
